<?xml version="1.0" encoding="utf-8"?>
<!-- Generator: Adobe Illustrator 27.5.0, SVG Export Plug-In . SVG Version: 6.00 Build 0)  -->
<svg version="1.1" id="Layer_1" xmlns="http://www.w3.org/2000/svg" xmlns:xlink="http://www.w3.org/1999/xlink" x="0px" y="0px"
	 viewBox="0 0 1000 600" style="enable-background:new 0 0 1000 600;" xml:space="preserve">
<g>
	<rect width="1000" height="600"/>
	<g>
		<g>
			<path style="fill:#525154;" d="M977.489,0h-7.857c8.655,5.291,18.515,10.623,30.368,15.989v-4.406
				C991.566,7.703,984.16,3.841,977.489,0z"/>
		</g>
		<g>
			<path style="fill:#525154;" d="M938.89,0h-6.731c16.695,12.495,35.768,25.262,67.842,38.099v-4.314
				C971.975,22.419,954.118,11.109,938.89,0z"/>
		</g>
		<g>
			<path style="fill:#525154;" d="M910.997,5.421c-2.317-1.801-4.645-3.608-7.01-5.421h-6.618c3.83,2.874,7.514,5.735,11.174,8.58
				c21.432,16.659,43.578,33.867,91.457,50.957v-4.252C953.652,38.565,931.975,21.727,910.997,5.421z"/>
		</g>
		<g>
			<path style="fill:#525154;" d="M990.922,73.159c-50.245-17.367-72.72-35.102-94.454-52.253C887.73,14.01,878.867,7.021,868.178,0
				h-7.447c13.018,8.077,23.221,16.123,33.259,24.045c21.996,17.358,44.741,35.307,95.626,52.894
				c3.57,1.234,7.023,2.372,10.385,3.439v-4.194C997.053,75.239,994.029,74.233,990.922,73.159z"/>
		</g>
		<g>
			<path style="fill:#525154;" d="M976.238,89.049c-50.237-17.364-72.637-35.308-94.298-52.661
				C866.991,24.413,851.688,12.16,827.34,0h-9.238c28.46,13.173,45.106,26.507,61.338,39.51
				c21.927,17.565,44.601,35.729,95.492,53.319c9.006,3.113,17.315,5.656,25.068,7.748v-4.148
				C992.627,94.414,984.748,91.99,976.238,89.049z"/>
		</g>
		<g>
			<path style="fill:#525154;" d="M961.556,104.94C911.324,87.578,889,69.426,867.411,51.872
				C846.326,34.728,824.54,17.021,777.346,0H765.08c1.859,0.613,3.74,1.242,5.662,1.907c50.231,17.362,72.556,35.514,94.144,53.068
				c21.859,17.773,44.463,36.152,95.362,53.745c14.958,5.17,28.025,8.769,39.751,11.274v-4.097
				C988.629,113.433,975.98,109.926,961.556,104.94z"/>
		</g>
		<g>
			<path style="fill:#525154;" d="M946.872,120.83c-50.224-17.359-72.473-35.719-93.988-53.475
				c-21.79-17.981-44.322-36.575-95.229-54.17C738.156,6.445,721.85,2.398,707.553,0H606.129
				c16.135,1.644,29.814,1.315,43.271,0.989c27.886-0.681,56.725-1.383,106.948,15.977c50.225,17.359,72.474,35.72,93.99,53.475
				c21.79,17.981,44.321,36.575,95.227,54.17c21.498,7.431,39.116,11.588,54.435,13.87v-4.055
				C985.018,132.156,967.807,128.065,946.872,120.83z"/>
		</g>
		<g>
			<path style="fill:#525154;" d="M932.188,136.72c-50.217-17.357-72.391-35.925-93.834-53.882
				c-21.722-18.189-44.182-36.998-95.096-54.596C692.344,10.645,663.06,11.57,634.747,12.464C608.576,13.29,581.563,14.142,537.01,0
				h-12.584c0.647,0.228,1.28,0.456,1.938,0.683c50.912,17.598,80.193,16.673,108.51,15.779
				c27.953-0.883,56.863-1.795,107.078,15.561c50.217,17.357,72.391,35.925,93.834,53.882
				c21.722,18.189,44.182,36.998,95.096,54.596c28.669,9.909,50.479,13.945,69.119,15.42v-4.023
				C981.685,150.417,960.269,146.427,932.188,136.72z"/>
		</g>
		<g>
			<path style="fill:#525154;" d="M917.504,152.61c-50.21-17.354-72.309-36.131-93.68-54.289
				C802.172,79.924,779.782,60.9,728.861,43.3c-50.919-17.599-80.274-16.462-108.668-15.362
				c-28.022,1.085-56.998,2.209-107.207-15.145C500.861,8.603,490.388,4.328,481.155,0h-9.144
				c11.067,5.619,24.016,11.164,39.668,16.574c50.919,17.6,80.273,16.462,108.668,15.362c28.018-1.085,56.996-2.21,107.207,15.145
				c50.21,17.354,72.309,36.131,93.68,54.289c21.652,18.397,44.042,37.421,94.963,55.021c36.476,12.607,61.885,15.598,83.803,15.877
				v-4.006C978.408,167.974,953.377,165.009,917.504,152.61z"/>
		</g>
		<g>
			<path style="fill:#525154;" d="M902.82,168.501c-50.203-17.353-72.227-36.337-93.525-54.696
				c-21.584-18.605-43.902-37.844-94.829-55.446c-50.928-17.602-80.363-16.251-108.828-14.945
				c-28.085,1.289-57.135,2.622-107.337-14.73C471.645,19.47,452.932,9.796,438.055,0h-7.142
				c15.869,11.081,35.976,22.058,66.081,32.464c50.928,17.603,80.364,16.252,108.827,14.945
				c28.092-1.289,57.136-2.622,107.338,14.729c50.202,17.352,72.226,36.336,93.524,54.696c21.584,18.605,43.902,37.844,94.83,55.447
				c44.808,15.487,72.975,16.302,98.486,15.384v-4.004C974.813,184.57,947.016,183.776,902.82,168.501z"/>
		</g>
		<g>
			<path style="fill:#525154;" d="M995.602,198.706c-28.157,1.492-57.273,3.035-107.468-14.314
				c-50.195-17.349-72.143-36.542-93.368-55.103c-21.515-18.813-43.762-38.268-94.696-55.873
				c-50.933-17.604-80.442-16.041-108.985-14.528c-28.155,1.492-57.272,3.036-107.468-14.314
				C442.866,30.489,420.733,15.19,402.489,0h-6.205c19.256,16.426,41.851,33.086,86.026,48.355
				c50.936,17.605,80.446,16.042,108.986,14.528c28.153-1.492,57.272-3.035,107.467,14.314
				c50.196,17.35,72.145,36.543,93.369,55.103c21.515,18.814,43.762,38.268,94.695,55.873
				c50.933,17.604,80.446,16.041,108.985,14.527c1.392-0.074,2.788-0.146,4.187-0.219v-4.005
				C998.53,198.552,997.064,198.628,995.602,198.706z"/>
		</g>
		<g>
			<path style="fill:#525154;" d="M981.05,214.181c-28.224,1.695-57.408,3.448-107.595-13.898
				c-50.19-17.348-72.063-36.748-93.217-55.51c-21.445-19.021-43.622-38.691-94.563-56.297
				c-50.94-17.607-80.53-15.831-109.144-14.111c-28.223,1.696-57.409,3.448-107.597-13.898
				c-50.191-17.348-72.065-36.749-93.22-55.511c-1.856-1.647-3.721-3.299-5.606-4.954h-6.096c3.08,2.656,6.072,5.308,9.048,7.946
				c21.446,19.022,43.624,38.691,94.567,56.299c50.941,17.607,80.532,15.83,109.143,14.111
				c28.224-1.697,57.409-3.448,107.598,13.898c50.188,17.347,72.062,36.748,93.215,55.51c21.446,19.021,43.623,38.69,94.564,56.298
				c50.938,17.606,80.525,15.831,109.142,14.11c6.122-0.367,12.292-0.737,18.71-0.914v-4.006
				C993.5,213.434,987.252,213.808,981.05,214.181z"/>
		</g>
		<g>
			<path style="fill:#525154;" d="M966.496,229.655c-28.29,1.898-57.546,3.861-107.727-13.482
				c-50.183-17.346-71.981-36.954-93.061-55.917c-21.377-19.23-43.482-39.114-94.431-56.723
				c-50.949-17.61-80.614-15.619-109.301-13.694c-28.289,1.898-57.543,3.861-107.726-13.483
				c-50.185-17.346-71.983-36.955-93.066-55.919C353.655,13.663,346.029,6.808,337.089,0h-6.726
				c10.767,7.779,19.519,15.648,28.147,23.411c21.378,19.23,43.483,39.115,94.434,56.725c50.948,17.609,80.611,15.619,109.3,13.694
				c28.292-1.898,57.546-3.861,107.727,13.483c50.183,17.345,71.981,36.954,93.061,55.917
				c21.377,19.229,43.482,39.113,94.431,56.723c50.947,17.609,80.612,15.618,109.301,13.695c10.594-0.712,21.323-1.432,33.236-1.143
				v-4.01C987.998,228.215,977.178,228.939,966.496,229.655z"/>
		</g>
		<g>
			<path style="fill:#525154;" d="M951.941,245.13c-28.363,2.101-57.684,4.273-107.856-13.068
				c-50.175-17.342-71.899-37.158-92.907-56.323c-21.308-19.438-43.342-39.537-94.297-57.148
				c-50.955-17.613-80.696-15.409-109.459-13.277c-28.362,2.102-57.684,4.273-107.857-13.068
				c-50.176-17.343-71.9-37.16-92.909-56.325C333.535,23.953,320.129,11.735,299.878,0h-8.24
				c23.515,12.61,38.089,25.893,52.322,38.876c21.308,19.438,43.342,39.538,94.298,57.15c50.954,17.612,80.695,15.408,109.46,13.277
				c28.358-2.101,57.681-4.274,107.856,13.068c50.176,17.342,71.899,37.159,92.908,56.323
				c21.308,19.438,43.342,39.537,94.296,57.149c50.956,17.611,80.697,15.407,109.459,13.277c14.727-1.093,29.726-2.196,47.763-0.582
				v-4.027C981.875,242.921,966.775,244.032,951.941,245.13z"/>
		</g>
		<g>
			<path style="fill:#525154;" d="M937.388,260.606c-28.424,2.305-57.819,4.688-107.987-12.653
				c-50.168-17.341-71.816-37.364-92.752-56.73c-21.239-19.646-43.201-39.96-94.162-57.574
				c-50.963-17.615-80.781-15.197-109.617-12.86c-28.428,2.305-57.819,4.687-107.986-12.653
				c-50.171-17.341-71.82-37.366-92.757-56.732c-18.8-17.39-38.185-35.302-77.73-51.404h-11.072
				c45.453,16.777,66.104,35.858,86.086,54.34c21.239,19.646,43.202,39.961,94.166,57.576
				c50.959,17.614,80.776,15.197,109.616,12.86c28.424-2.305,57.816-4.688,107.987,12.653c50.168,17.34,71.816,37.365,92.752,56.73
				c21.239,19.646,43.201,39.96,94.162,57.574c50.961,17.614,80.779,15.196,109.616,12.859c18.522-1.502,37.462-3.032,62.29,0.879
				v-4.058C975.09,257.558,956.027,259.095,937.388,260.606z"/>
		</g>
		<g>
			<path style="fill:#525154;" d="M922.834,276.082c-28.492,2.507-57.954,5.101-108.116-12.237
				c-50.161-17.339-71.735-37.571-92.599-57.138c-21.17-19.855-43.06-40.384-94.029-58.001
				c-50.969-17.617-80.866-14.986-109.773-12.442c-28.493,2.507-57.955,5.1-108.117-12.238
				c-50.163-17.338-71.738-37.572-92.603-57.139c-21.171-19.854-43.061-40.384-94.032-58.001C212.381,5.021,202.213,2.131,192.846,0
				h-23.342c15,1.781,32.125,5.536,52.754,12.667c50.163,17.339,71.738,37.572,92.603,57.139
				c21.171,19.854,43.062,40.384,94.032,58.001c50.968,17.617,80.862,14.986,109.774,12.442
				c28.494-2.506,57.956-5.099,108.116,12.238c50.162,17.338,71.736,37.571,92.6,57.137c21.17,19.854,43.061,40.384,94.028,58
				c50.966,17.617,80.86,14.987,109.773,12.442c21.997-1.935,44.583-3.912,76.815,3.261v-4.102
				C967.694,272.147,944.969,274.135,922.834,276.082z"/>
			<path style="fill:#525154;" d="M114.138,0.427c1.632-0.144,3.267-0.287,4.908-0.427H51.621
				C76.45,3.732,95.502,2.066,114.138,0.427z"/>
		</g>
		<g>
			<path style="fill:#525154;" d="M908.281,291.557c-28.561,2.71-58.092,5.513-108.246-11.823
				c-50.155-17.336-71.655-37.775-92.446-57.543c-21.101-20.063-42.92-40.807-93.895-58.426
				c-50.975-17.619-80.946-14.774-109.931-12.024c-28.561,2.71-58.092,5.512-108.247-11.823
				c-50.157-17.336-71.657-37.778-92.449-57.546c-21.102-20.062-42.921-40.807-93.897-58.427
				C158.192,6.324,128.218,9.167,99.233,11.918C72.428,14.46,44.764,17.083,0,3.065v4.184c44.809,13.84,72.643,11.21,99.61,8.651
				c28.563-2.71,58.096-5.511,108.253,11.825c50.156,17.336,71.656,37.777,92.448,57.545c21.102,20.063,42.921,40.808,93.898,58.428
				c50.975,17.619,80.945,14.776,109.932,12.024c28.559-2.709,58.093-5.512,108.246,11.823
				c50.154,17.335,71.653,37.776,92.445,57.544c21.101,20.062,42.92,40.807,93.895,58.426
				c50.976,17.619,80.947,14.775,109.931,12.025c25.194-2.391,51.151-4.843,91.341,6.506v-4.163
				C959.74,286.674,933.633,289.151,908.281,291.557z"/>
		</g>
		<g>
			<path style="fill:#525154;" d="M893.727,307.032c-28.63,2.913-58.232,5.924-108.376-11.408
				c-50.148-17.333-71.573-37.981-92.293-57.95c-21.031-20.27-42.779-41.229-93.762-58.851
				c-50.979-17.622-81.029-14.565-110.088-11.607c-28.625,2.913-58.229,5.925-108.377-11.408
				c-50.149-17.334-71.574-37.983-92.294-57.952c-21.032-20.27-42.78-41.231-93.765-58.853
				C143.791,21.38,113.741,24.438,84.681,27.394c-23.8,2.421-48.286,4.899-84.681-4.29v4.129c36.483,9.072,61.129,6.578,85.085,4.14
				c28.634-2.912,58.235-5.923,108.382,11.41c50.15,17.334,71.575,37.983,92.295,57.953c21.032,20.27,42.78,41.23,93.764,58.852
				c50.981,17.621,81.027,14.564,110.089,11.607c28.627-2.913,58.23-5.924,108.376,11.408
				c50.148,17.334,71.573,37.983,92.293,57.951c21.031,20.27,42.779,41.231,93.762,58.852
				c50.981,17.621,81.028,14.564,110.088,11.607c28.143-2.863,57.243-5.81,105.867,10.561v-4.221
				C951.326,301.182,922.053,304.15,893.727,307.032z"/>
		</g>
		<g>
			<path style="fill:#525154;" d="M989.42,333.698c-50.99-17.625-81.112-14.353-110.246-11.189
				c-28.693,3.115-58.366,6.336-108.507-10.994c-50.142-17.33-71.491-38.188-92.138-58.357
				c-20.962-20.477-42.638-41.652-93.627-59.276c-50.99-17.625-81.113-14.353-110.246-11.191
				c-28.694,3.117-58.367,6.338-108.508-10.993c-50.143-17.332-71.494-38.189-92.142-58.359
				c-20.963-20.479-42.64-41.654-93.63-59.278c-50.99-17.625-81.116-14.354-110.25-11.191C49.621,45.095,28.613,47.37,0,42.167
				v4.073c28.736,5.135,49.902,2.848,70.559,0.605c28.692-3.116,58.368-6.337,108.512,10.995
				c50.144,17.332,71.494,38.188,92.142,58.359c20.963,20.478,42.64,41.653,93.63,59.278c50.988,17.624,81.111,14.353,110.246,11.19
				c28.695-3.116,58.367-6.337,108.508,10.993c50.142,17.331,71.492,38.188,92.139,58.357
				c20.962,20.479,42.638,41.653,93.626,59.277c50.987,17.623,81.114,14.354,110.245,11.19
				c28.696-3.115,58.368-6.337,108.508,10.992c4.161,1.438,8.106,2.903,11.887,4.388v-4.294
				C996.613,336.263,993.102,334.97,989.42,333.698z"/>
		</g>
		<g>
			<path style="fill:#525154;" d="M975.024,348.756c-50.996-17.626-81.197-14.142-110.403-10.772
				c-28.762,3.319-58.504,6.75-108.638-10.578c-50.135-17.328-71.41-38.394-91.984-58.765
				c-20.893-20.686-42.497-42.076-93.491-59.702c-50.994-17.626-81.196-14.143-110.403-10.771
				c-28.762,3.317-58.505,6.749-108.639-10.579c-50.137-17.329-71.413-38.394-91.988-58.766
				c-20.894-20.687-42.499-42.077-93.496-59.704c-50.998-17.627-81.2-14.143-110.408-10.774C38.695,60.292,21.474,62.271,0,60.079
				v4.035c21.628,2.164,39.003,0.169,56.031-1.795c28.764-3.317,58.506-6.749,108.643,10.581
				c50.137,17.33,71.413,38.395,91.988,58.766c20.893,20.687,42.499,42.077,93.496,59.704
				c50.994,17.625,81.195,14.141,110.403,10.771c28.765-3.318,58.506-6.749,108.639,10.579
				c50.134,17.329,71.409,38.394,91.983,58.765c20.893,20.686,42.497,42.076,93.492,59.702
				c50.992,17.626,81.194,14.143,110.403,10.773c28.762-3.318,58.504-6.75,108.638,10.578c9.797,3.387,18.479,6.917,26.282,10.556
				v-4.413C992.521,355.266,984.261,351.948,975.024,348.756z"/>
		</g>
		<g>
			<path style="fill:#525154;" d="M960.629,363.814c-51.001-17.629-81.279-13.93-110.561-10.354
				c-28.827,3.521-58.641,7.162-108.768-10.164c-50.129-17.326-71.329-38.599-91.831-59.172
				c-20.824-20.893-42.356-42.5-93.358-60.127c-50.999-17.628-81.278-13.931-110.56-10.355
				c-28.832,3.521-58.644,7.161-108.77-10.163c-50.13-17.328-71.331-38.601-91.834-59.173
				c-20.824-20.895-42.357-42.501-93.361-60.13S70.304,70.245,41.021,73.821C28.123,75.395,15.021,76.988,0,76.723v4.017
				c15.197,0.258,28.453-1.355,41.505-2.949c28.832-3.521,58.643-7.161,108.774,10.165c50.13,17.327,71.331,38.601,91.834,59.173
				c20.824,20.895,42.358,42.5,93.361,60.129s81.28,13.93,110.562,10.354c28.829-3.52,58.64-7.163,108.769,10.163
				c50.129,17.326,71.329,38.6,91.831,59.172c20.824,20.895,42.357,42.5,93.358,60.129c51.002,17.628,81.279,13.93,110.56,10.354
				c28.829-3.521,58.642-7.162,108.769,10.162c16.299,5.635,29.525,11.686,40.678,17.995v-4.599
				C989.085,374.981,976.243,369.21,960.629,363.814z"/>
		</g>
		<g>
			<path style="fill:#525154;" d="M946.232,378.872c-51.01-17.631-81.362-13.719-110.718-9.937
				c-28.896,3.723-58.777,7.574-108.899-9.749c-50.121-17.324-71.247-38.805-91.677-59.578
				c-20.755-21.103-42.215-42.924-93.224-60.554c-51.009-17.63-81.363-13.72-110.718-9.937c-28.897,3.725-58.777,7.574-108.899-9.75
				c-50.123-17.324-71.25-38.805-91.682-59.579c-20.755-21.103-42.216-42.924-93.227-60.555
				c-51.01-17.631-81.366-13.72-110.723-9.938C17.9,90.4,9.242,91.511,0,92.082v4.016c9.424-0.578,18.248-1.71,26.979-2.834
				c28.899-3.723,58.781-7.573,108.904,9.751c50.123,17.325,71.25,38.806,91.682,59.579c20.755,21.103,42.216,42.924,93.226,60.556
				c51.007,17.629,81.359,13.719,110.718,9.936c28.895-3.725,58.776-7.574,108.899,9.75c50.121,17.324,71.247,38.805,91.678,59.578
				c20.754,21.103,42.215,42.923,93.223,60.553c51.007,17.63,81.361,13.719,110.718,9.937c28.897-3.724,58.779-7.573,108.899,9.749
				c23.955,8.28,41.277,17.511,55.074,27.158v-4.874C986.345,395.692,969.322,386.853,946.232,378.872z"/>
		</g>
		<g>
			<path style="fill:#525154;" d="M931.837,393.929c-51.016-17.633-81.445-13.508-110.874-9.518
				c-28.965,3.927-58.914,7.987-109.03-9.334c-50.115-17.322-71.166-39.011-91.524-59.985
				c-20.685-21.31-42.074-43.347-93.089-60.979c-51.014-17.633-81.444-13.508-110.875-9.518
				c-28.967,3.926-58.917,7.985-109.031-9.336c-50.117-17.322-71.17-39.011-91.529-59.986
				c-20.686-21.311-42.074-43.347-93.091-60.98c-51.015-17.633-81.447-13.508-110.878-9.52c-3.936,0.534-7.894,1.068-11.915,1.552
				v4.03c4.205-0.503,8.34-1.061,12.452-1.619c28.965-3.926,58.917-7.986,109.034,9.337c50.116,17.322,71.168,39.011,91.527,59.986
				c20.686,21.311,42.075,43.347,93.093,60.981c51.014,17.633,81.443,13.508,110.875,9.518c28.967-3.926,58.917-7.985,109.031,9.336
				c50.115,17.321,71.166,39.01,91.524,59.984c20.686,21.311,42.074,43.347,93.089,60.979
				c51.016,17.635,81.445,13.508,110.874,9.519c28.965-3.927,58.914-7.987,109.03,9.335c33.125,11.449,53.548,24.807,69.47,38.605
				v-5.273C984.176,417.782,963.836,404.989,931.837,393.929z"/>
		</g>
		<g>
			<path style="fill:#525154;" d="M917.441,408.987c-51.023-17.635-81.528-13.295-111.031-9.1
				c-29.031,4.129-59.054,8.398-109.16-8.92c-50.108-17.32-71.087-39.217-91.373-60.393c-20.616-21.519-41.934-43.77-92.955-61.404
				c-51.021-17.637-81.529-13.297-111.03-9.102c-29.033,4.131-59.055,8.398-109.161-8.92c-50.11-17.32-71.089-39.217-91.376-60.393
				c-20.616-21.52-41.934-43.771-92.958-61.407C58.893,112.239,28.7,115.814,0,119.873v4.04c28.398-4.025,58.171-7.691,107.09,9.217
				c50.11,17.32,71.089,39.217,91.376,60.393c20.616,21.519,41.934,43.77,92.958,61.406c51.021,17.636,81.527,13.296,111.031,9.101
				c29.031-4.128,59.053-8.398,109.16,8.92c50.108,17.32,71.086,39.217,91.373,60.393c20.615,21.518,41.933,43.77,92.955,61.404
				c51.021,17.636,81.529,13.297,111.03,9.101c29.035-4.13,59.056-8.398,109.161,8.92c43.998,15.207,65.534,33.944,83.865,52.623
				v-5.684C981.934,441.657,960.045,423.713,917.441,408.987z"/>
		</g>
		<g>
			<path style="fill:#525154;" d="M995.86,485.876c-20.546-21.727-41.79-44.193-92.817-61.83
				c-51.027-17.637-81.611-13.085-111.187-8.682c-29.099,4.33-59.19,8.81-109.292-8.507c-50.102-17.317-71.005-39.423-91.22-60.799
				c-20.545-21.728-41.79-44.193-92.817-61.831c-51.027-17.637-81.611-13.085-111.188-8.682c-29.1,4.33-59.19,8.811-109.293-8.506
				c-50.104-17.318-71.008-39.424-91.223-60.8c-20.547-21.728-41.793-44.194-92.824-61.832c-41.285-14.27-69.186-14.014-94-11.065
				v4.03c24.488-2.937,51.986-3.255,92.693,10.816c50.104,17.318,71.009,39.423,91.225,60.8
				c20.546,21.728,41.793,44.194,92.822,61.831c51.025,17.637,81.608,13.085,111.188,8.684c29.098-4.332,59.19-8.811,109.292,8.506
				c50.102,17.316,71.004,39.422,91.218,60.798c20.546,21.728,41.791,44.194,92.819,61.831
				c51.028,17.638,81.61,13.084,111.187,8.682c29.101-4.33,59.191-8.809,109.291,8.507c50.101,17.317,71.003,39.421,91.218,60.798
				c2.325,2.459,4.661,4.927,7.046,7.396v-5.778C998.611,488.784,997.234,487.328,995.86,485.876z"/>
		</g>
		<g>
			<path style="fill:#525154;" d="M981.329,501.358c-20.476-21.935-41.648-44.616-92.681-62.256
				c-51.034-17.64-81.693-12.873-111.345-8.264c-29.165,4.535-59.327,9.223-109.424-8.092
				c-50.096-17.315-70.924-39.627-91.066-61.205c-20.476-21.936-41.649-44.617-92.684-62.256
				c-51.034-17.641-81.693-12.873-111.345-8.265c-29.168,4.535-59.329,9.222-109.423-8.091
				c-50.098-17.316-70.927-39.629-91.07-61.207c-20.477-21.936-41.651-44.617-92.688-62.257
				C46.123,147.895,21.411,145.965,0,147.308v4.02c21.075-1.335,45.383,0.543,78.298,11.919
				c50.098,17.316,70.927,39.628,91.07,61.206c20.477,21.935,41.651,44.617,92.688,62.257c51.032,17.64,81.692,12.873,111.345,8.264
				c29.166-4.533,59.326-9.223,109.423,8.092c50.096,17.316,70.924,39.629,91.066,61.206c20.476,21.935,41.649,44.616,92.684,62.257
				c51.035,17.64,81.696,12.873,111.346,8.264c29.167-4.535,59.328-9.223,109.423,8.092c50.094,17.314,70.922,39.627,91.063,61.203
				c6.768,7.252,13.62,14.583,21.595,21.788v-5.446C993.235,514.106,987.25,507.7,981.329,501.358z"/>
		</g>
		<g>
			<path style="fill:#525154;" d="M966.799,516.843c-20.406-22.143-41.507-45.04-92.547-62.682
				c-51.041-17.642-81.775-12.661-111.5-7.846c-29.237,4.736-59.468,9.634-109.555-7.678
				c-50.089-17.313-70.843-39.833-90.913-61.611c-20.407-22.144-41.508-45.041-92.55-62.683
				c-51.042-17.642-81.778-12.661-111.5-7.846c-29.235,4.735-59.466,9.634-109.555-7.678
				c-50.092-17.314-70.847-39.834-90.918-61.613c-20.407-22.143-41.51-45.04-92.553-62.683C38.98,165.459,18.122,162.374,0,162.163
				v4.02c17.779,0.217,38.229,3.249,63.902,12.122c50.092,17.313,70.847,39.834,90.918,61.613
				c20.407,22.143,41.51,45.04,92.553,62.683c51.04,17.642,81.776,12.662,111.501,7.846c29.232-4.736,59.464-9.635,109.554,7.678
				c50.09,17.313,70.844,39.834,90.915,61.613c20.406,22.143,41.507,45.039,92.548,62.682
				c51.041,17.642,81.777,12.662,111.501,7.846c29.234-4.737,59.465-9.635,109.554,7.678c50.088,17.313,70.842,39.832,90.912,61.611
				c10.523,11.418,21.24,23.035,36.143,34.029v-5.026C986.555,538.269,976.59,527.468,966.799,516.843z"/>
		</g>
		<g>
			<path style="fill:#525154;" d="M952.267,532.327c-20.336-22.352-41.364-45.464-92.411-63.107
				c-51.048-17.645-81.858-12.451-111.656-7.428c-29.305,4.939-59.604,10.047-109.685-7.264
				c-50.082-17.31-70.762-40.039-90.761-62.02c-20.337-22.351-41.366-45.463-92.413-63.107
				c-51.048-17.643-81.86-12.449-111.658-7.427c-29.304,4.939-59.603,10.047-109.687-7.263
				c-50.084-17.313-70.765-40.041-90.765-62.022c-20.338-22.351-41.368-45.463-92.417-63.107
				C31.266,182.826,14.692,179.426,0,178.075v4.035c14.338,1.346,30.494,4.682,49.506,11.252
				c50.084,17.313,70.765,40.041,90.765,62.02c20.338,22.352,41.368,45.464,92.417,63.108s81.862,12.451,111.658,7.428
				c29.302-4.939,59.603-10.047,109.688,7.264c50.082,17.311,70.762,40.039,90.761,62.02c20.337,22.351,41.366,45.463,92.413,63.108
				c51.047,17.643,81.858,12.449,111.657,7.428c29.304-4.939,59.603-10.047,109.685,7.264c50.082,17.309,70.761,40.037,90.76,62.018
				c13.635,14.986,27.596,30.31,50.691,44.103v-4.696C978.553,561.204,965.262,546.608,952.267,532.327z"/>
		</g>
		<g>
			<path style="fill:#525154;" d="M1000,598.425c-30.5-15.271-46.597-33.175-62.264-50.615
				c-20.267-22.559-41.224-45.887-92.276-63.532c-51.055-17.647-81.943-12.239-111.813-7.009
				c-29.371,5.143-59.741,10.458-109.816-6.85c-50.076-17.309-70.682-40.245-90.609-62.426
				c-20.267-22.56-41.224-45.887-92.277-63.533c-51.055-17.646-81.943-12.238-111.813-7.01c-29.371,5.143-59.74,10.46-109.817-6.849
				c-50.078-17.31-70.685-40.245-90.613-62.427c-20.268-22.561-41.226-45.888-92.281-63.535
				c-13.421-4.639-25.437-7.672-36.419-9.547v4.07c10.611,1.846,22.203,4.795,35.112,9.258
				c50.078,17.309,70.685,40.245,90.612,62.427c20.269,22.56,41.227,45.888,92.282,63.534c51.052,17.646,81.941,12.238,111.813,7.01
				c29.373-5.143,59.742-10.459,109.817,6.849c50.076,17.309,70.682,40.245,90.608,62.426c20.268,22.56,41.225,45.888,92.278,63.533
				c51.054,17.647,81.941,12.237,111.812,7.009c29.373-5.141,59.743-10.457,109.816,6.85c50.075,17.309,70.681,40.244,90.607,62.426
				c15.262,16.988,30.921,34.411,59.524,49.517H1000V598.425z"/>
		</g>
		<g>
			<path style="fill:#525154;" d="M923.203,563.293c-20.196-22.767-41.08-46.31-92.139-63.957
				c-51.059-17.647-82.024-12.026-111.97-6.591c-29.439,5.344-59.879,10.869-109.948-6.435
				c-50.07-17.307-70.602-40.451-90.457-62.833c-20.197-22.768-41.082-46.31-92.143-63.958
				c-51.061-17.649-82.025-12.028-111.97-6.592c-29.441,5.344-59.881,10.87-109.95-6.436c-50.071-17.307-70.605-40.45-90.461-62.832
				c-20.198-22.769-41.084-46.312-92.146-63.961c-7.786-2.691-15.1-4.835-22.02-6.527v4.132c6.529,1.624,13.406,3.651,20.713,6.177
				c50.072,17.307,70.604,40.451,90.461,62.834c20.198,22.768,41.085,46.31,92.146,63.959c51.06,17.648,82.025,12.025,111.971,6.59
				c29.439-5.343,59.879-10.869,109.949,6.436c50.07,17.307,70.602,40.451,90.457,62.834c20.197,22.768,41.082,46.31,92.143,63.958
				c51.058,17.647,82.023,12.028,111.97,6.591c29.438-5.344,59.878-10.87,109.948,6.436c50.068,17.306,70.599,40.449,90.453,62.832
				c10.146,11.437,20.469,23.068,34.699,34.052h6.735C945.376,588.274,934.182,575.668,923.203,563.293z"/>
		</g>
		<g>
			<path style="fill:#525154;" d="M908.673,578.776c-20.127-22.975-40.939-46.733-92.005-64.383
				c-51.066-17.65-82.108-11.815-112.125-6.172c-29.505,5.547-60.017,11.281-110.08-6.022
				c-50.063-17.305-70.521-40.656-90.305-63.24c-20.127-22.975-40.939-46.732-92.006-64.383
				c-51.066-17.651-82.108-11.816-112.127-6.174c-29.506,5.547-60.017,11.283-110.08-6.021
				c-50.065-17.305-70.524-40.656-90.309-63.24c-20.129-22.977-40.942-46.734-92.01-64.385c-2.598-0.898-5.131-1.72-7.627-2.5v4.194
				c2.076,0.659,4.174,1.344,6.32,2.085c50.064,17.305,70.522,40.658,90.308,63.24c20.129,22.977,40.942,46.734,92.011,64.387
				c51.064,17.65,82.106,11.814,112.126,6.172c29.508-5.546,60.019-11.281,110.081,6.021c50.063,17.305,70.52,40.656,90.305,63.24
				c20.127,22.975,40.939,46.732,92.006,64.383c51.064,17.651,82.106,11.816,112.126,6.174
				c29.507-5.547,60.018-11.281,110.079,6.021c50.063,17.303,70.52,40.654,90.303,63.238c5.418,6.184,10.891,12.424,16.984,18.587
				h5.688C921.124,592.989,914.865,585.846,908.673,578.776z"/>
		</g>
		<g>
			<path style="fill:#525154;" d="M802.271,529.452c-51.07-17.652-82.186-11.604-112.282-5.754
				c-29.575,5.748-60.155,11.693-110.211-5.608c-50.057-17.302-70.44-40.862-90.152-63.645
				c-20.058-23.184-40.799-47.157-91.872-64.811c-51.072-17.652-82.188-11.603-112.282-5.754
				c-29.574,5.75-60.155,11.694-110.212-5.607c-50.059-17.303-70.442-40.863-90.155-63.647C65.959,292.497,46.172,269.653,0,252.269
				v4.275c44.236,16.978,63.464,39.182,82.079,60.698c20.059,23.185,40.8,47.157,91.874,64.811
				c51.072,17.653,82.19,11.604,112.282,5.755c29.574-5.75,60.156-11.694,110.212,5.607c50.058,17.302,70.441,40.861,90.153,63.646
				c20.058,23.184,40.799,47.156,91.871,64.809c51.072,17.652,82.189,11.603,112.281,5.754
				c29.575-5.749,60.156-11.693,110.212,5.607c50.056,17.302,70.438,40.861,90.149,63.647c0.899,1.039,1.802,2.08,2.706,3.122h5.307
				c-1.678-1.916-3.336-3.831-4.987-5.739C874.082,571.077,853.343,547.104,802.271,529.452z"/>
		</g>
		<g>
			<path style="fill:#525154;" d="M787.877,544.511c-51.079-17.655-82.272-11.392-112.438-5.336
				c-29.643,5.951-60.294,12.105-110.343-5.193c-50.051-17.301-70.36-41.068-90.001-64.054
				c-19.988-23.392-40.657-47.58-91.736-65.235c-51.079-17.654-82.271-11.391-112.438-5.335
				c-29.643,5.952-60.295,12.105-110.344-5.194c-50.053-17.3-70.363-41.068-90.005-64.055C53.604,310.252,36.136,289.823,0,273.302
				v4.418c34.253,16.063,51.133,35.797,67.532,54.988c19.989,23.392,40.658,47.58,91.739,65.236
				c51.079,17.654,82.271,11.392,112.438,5.335c29.642-5.952,60.292-12.106,110.344,5.194
				c50.052,17.299,70.361,41.067,90.002,64.053c19.988,23.393,40.656,47.58,91.735,65.234c51.075,17.655,82.27,11.393,112.437,5.336
				c29.641-5.951,60.293-12.105,110.344,5.193c41.115,14.212,62.156,32.788,79.248,51.71h5.365
				C853.31,579.778,831.881,559.72,787.877,544.511z"/>
		</g>
		<g>
			<path style="fill:#525154;" d="M660.888,554.651c-29.709,6.152-60.431,12.517-110.476-4.78
				c-50.044-17.298-70.279-41.274-89.849-64.46c-19.918-23.601-40.514-48.004-91.599-65.661
				c-51.087-17.658-82.355-11.181-112.595-4.917c-29.708,6.154-60.431,12.518-110.476-4.779
				c-50.047-17.299-70.283-41.275-89.854-64.462C41.551,328.423,26.688,310.831,0,295.718v4.637
				c24.903,14.564,39.118,31.388,52.984,47.817c19.919,23.601,40.517,48.005,91.603,65.662
				c51.085,17.657,82.355,11.18,112.594,4.917c29.711-6.154,60.433-12.518,110.477,4.779c50.044,17.298,70.279,41.273,89.849,64.461
				c19.918,23.6,40.514,48.004,91.599,65.66c51.085,17.657,82.354,11.18,112.594,4.916c29.709-6.154,60.43-12.517,110.475,4.78
				c29.965,10.357,49.237,23.109,64.084,36.652h5.875c-15.563-14.929-35.798-29.077-68.652-40.433
				C722.397,541.911,691.128,548.388,660.888,554.651z"/>
		</g>
		<g>
			<path style="fill:#525154;" d="M646.336,570.128c-29.777,6.356-60.568,12.929-110.607-4.366
				c-50.039-17.296-70.2-41.479-89.697-64.867c-19.848-23.808-40.372-48.427-91.463-66.086
				c-51.091-17.66-82.438-10.968-112.75-4.498c-29.778,6.357-60.57,12.929-110.608-4.366c-50.041-17.296-70.203-41.48-89.701-64.868
				C29.9,347.152,18.051,332.953,0,320.028v4.979c16.422,12.23,27.535,25.555,38.437,38.631
				c19.849,23.809,40.374,48.428,91.467,66.088c51.091,17.66,82.437,10.967,112.75,4.497c29.779-6.356,60.571-12.929,110.608,4.366
				c50.039,17.295,70.2,41.479,89.697,64.867c19.848,23.809,40.372,48.427,91.463,66.086c51.09,17.66,82.435,10.969,112.749,4.498
				c29.779-6.356,60.569-12.929,110.607,4.366c18.479,6.387,32.874,13.715,44.675,21.594h7.051
				c-12.893-9.302-28.95-17.954-50.419-25.374C707.996,556.966,676.649,563.657,646.336,570.128z"/>
		</g>
		<g>
			<path style="fill:#525154;" d="M631.784,585.604c-29.846,6.559-60.708,13.34-110.738-3.953
				c-50.032-17.293-70.12-41.685-89.546-65.273c-19.778-24.017-40.23-48.85-91.327-66.512c-51.096-17.66-82.52-10.756-112.905-4.078
				c-29.847,6.559-60.707,13.34-110.74-3.953c-50.034-17.295-70.123-41.687-89.55-65.275C18.807,366.638,10.514,356.578,0,346.94
				v5.503c9.11,8.717,16.549,17.745,23.89,26.659c19.779,24.016,40.231,48.851,91.331,66.512
				c51.097,17.662,82.517,10.757,112.905,4.08c29.845-6.559,60.707-13.34,110.74,3.953c50.032,17.293,70.12,41.685,89.546,65.273
				c19.778,24.016,40.23,48.85,91.327,66.512c51.096,17.66,82.516,10.756,112.904,4.078c29.846-6.559,60.709-13.34,110.739,3.953
				c6.018,2.08,11.592,4.265,16.795,6.536h9.549c-7.453-3.644-15.732-7.101-25.037-10.317
				C693.592,572.021,662.171,578.927,631.784,585.604z"/>
		</g>
		<g>
			<path style="fill:#525154;" d="M506.361,597.542c-50.027-17.291-70.04-41.891-89.395-65.681
				c-19.708-24.225-40.088-49.274-91.191-66.937c-51.104-17.664-82.601-10.545-113.061-3.66
				c-29.914,6.76-60.846,13.752-110.873-3.539c-50.027-17.292-70.042-41.893-89.397-65.683C8.412,387.087,4.346,382.096,0,377.141
				v6.12c3.207,3.768,6.283,7.547,9.342,11.307c19.709,24.225,40.089,49.274,91.193,66.938
				c51.105,17.665,82.603,10.545,113.062,3.66c29.914-6.76,60.847-13.751,110.872,3.539c50.027,17.292,70.04,41.892,89.395,65.682
				c19.223,23.628,39.099,48.036,87.483,65.614H513.9C511.432,599.237,508.928,598.43,506.361,597.542z"/>
			<path style="fill:#525154;" d="M622.04,600h20.536c15.754-2.554,32.951-3.548,53.79,0h18.531
				C675.104,589.248,647.852,594.233,622.04,600z"/>
		</g>
		<g>
			<path style="fill:#525154;" d="M402.435,547.345c-19.638-24.432-39.944-49.697-91.054-67.361
				c-51.111-17.668-82.684-10.334-113.218-3.242c-29.98,6.963-60.983,14.163-111.004-3.125C38.938,456.948,18.672,433.295,0,410.12
				v6.355c18.234,22.363,39.225,44.804,85.854,60.92c51.107,17.666,82.681,10.334,113.216,3.242
				c29.982-6.963,60.987-14.163,111.006,3.125c50.021,17.289,69.96,42.098,89.243,66.089c13.902,17.298,28.156,35.009,53.422,50.148
				h8.103C432.273,584.442,417.154,565.658,402.435,547.345z"/>
		</g>
		<g>
			<path style="fill:#525154;" d="M387.901,562.828c-19.568-24.642-39.803-50.12-90.918-67.788
				c-51.115-17.668-82.765-10.121-113.372-2.822c-30.051,7.166-61.125,14.574-111.137-2.712
				C36.217,476.974,15.807,460.379,0,442.981v5.9c15.731,16.609,36.237,32.331,71.168,44.404
				c51.114,17.667,82.764,10.121,113.371,2.822c30.05-7.165,61.122-14.574,111.138,2.712c50.015,17.287,69.88,42.304,89.092,66.495
				c9.276,11.681,18.708,23.549,31.502,34.685h6.252C408.052,588.185,397.883,575.398,387.901,562.828z"/>
		</g>
		<g>
			<path style="fill:#525154;" d="M282.588,510.099c-51.12-17.67-82.846-9.909-113.526-2.404
				c-30.117,7.368-61.259,14.988-111.27-2.299C31.698,496.377,13.84,485.195,0,473.1v5.296
				c13.759,11.494,31.386,22.105,56.484,30.781c51.123,17.67,82.848,9.908,113.527,2.403c30.119-7.368,61.262-14.986,111.27,2.299
				c50.009,17.285,69.801,42.509,88.941,66.902c5.022,6.401,10.094,12.857,15.723,19.219h5.4
				c-6.561-7.15-12.301-14.455-17.976-21.688C353.872,553.464,333.71,527.769,282.588,510.099z"/>
		</g>
		<g>
			<path style="fill:#525154;" d="M268.191,525.155c-51.128-17.672-82.929-9.695-113.683-1.984
				c-30.186,7.57-61.399,15.398-111.401-1.885C25.361,515.153,11.442,507.989,0,500.204v4.839
				c11.252,7.36,24.805,14.149,41.801,20.024c51.125,17.671,82.927,9.697,113.682,1.984c30.186-7.571,61.4-15.398,111.402,1.885
				c50.002,17.282,69.721,42.715,88.79,67.309c0.969,1.25,1.941,2.502,2.917,3.755h5.079c-1.628-2.071-3.234-4.142-4.835-6.206
				C339.408,568.737,319.318,542.827,268.191,525.155z"/>
		</g>
		<g>
			<path style="fill:#525154;" d="M253.797,540.215c-51.132-17.674-83.008-9.485-113.837-1.565
				c-30.254,7.771-61.537,15.809-111.535-1.473C17.633,533.447,8.262,529.326,0,524.91v4.527
				c7.968,4.126,16.914,7.993,27.118,11.521c51.132,17.672,83.009,9.484,113.837,1.565c30.256-7.771,61.541-15.808,111.535,1.473
				c42.143,14.566,62.721,35.072,79.524,56.005h5.112C319.593,577.759,298.685,555.729,253.797,540.215z"/>
		</g>
		<g>
			<path style="fill:#525154;" d="M239.402,555.273c-51.139-17.676-83.092-9.273-113.992-1.147
				c-30.323,7.974-61.679,16.219-111.668-1.059c-4.861-1.681-9.428-3.445-13.742-5.278v4.336c3.936,1.632,8.063,3.211,12.436,4.722
				c51.139,17.676,83.092,9.273,113.992,1.147c30.321-7.974,61.678-16.22,111.668,1.06c31.795,10.989,51.277,25.447,66.122,40.946
				h5.504C294.235,583.097,273.935,567.209,239.402,555.273z"/>
		</g>
		<g>
			<path style="fill:#525154;" d="M110.857,569.602C79.271,578.101,49.416,586.118,0,569.273v4.215
				c49.833,16.654,81.383,8.188,111.896-0.023c31.791-8.552,61.817-16.63,111.801,0.646c21.393,7.394,37.031,16.188,49.48,25.89
				h6.242c-13.378-11.169-30.469-21.393-54.416-29.67C173.861,552.653,141.833,561.269,110.857,569.602z"/>
		</g>
		<g>
			<path style="fill:#525154;" d="M96.307,585.08C67.913,592.891,40.91,600.298,0,589.596v4.112
				c41.588,10.556,69.896,2.785,97.367-4.771c31.861-8.764,61.953-17.042,111.934,0.232c9.645,3.334,18.107,6.961,25.646,10.831
				h8.273c-9.27-5.324-19.982-10.245-32.613-14.611C159.456,567.708,127.354,576.54,96.307,585.08z"/>
		</g>
		<g>
			<path style="fill:#525154;" d="M83.743,600h15.343c23.5-5.94,48.025-9.289,82.165,0h13.622
				C145.582,583.306,113.98,591.516,83.743,600z"/>
		</g>
	</g>
	<linearGradient id="SVGID_1_" gradientUnits="userSpaceOnUse" x1="-5.1832" y1="657.2557" x2="1077.9945" y2="-108.7464">
		<stop  offset="0.1433" style="stop-color:#000000;stop-opacity:0"/>
		<stop  offset="0.3393" style="stop-color:#000000"/>
		<stop  offset="0.6012" style="stop-color:#000000;stop-opacity:0.619"/>
		<stop  offset="0.7272" style="stop-color:#000000;stop-opacity:0.0315"/>
	</linearGradient>
	<rect style="fill:url(#SVGID_1_);" width="1000" height="600"/>
</g>
</svg>
